<svg width="84" height="84" viewBox="0 0 84 84" fill="none" xmlns="http://www.w3.org/2000/svg">
<path d="M42 0.333374C19 0.333374 0.333374 19 0.333374 42C0.333374 65 19 83.6667 42 83.6667C65 83.6667 83.6667 65 83.6667 42C83.6667 19 65 0.333374 42 0.333374ZM42 75.3334C23.625 75.3334 8.66671 60.375 8.66671 42C8.66671 23.625 23.625 8.66671 42 8.66671C60.375 8.66671 75.3334 23.625 75.3334 42C75.3334 60.375 60.375 75.3334 42 75.3334ZM61.125 23.5834L33.6667 51.0417L22.875 40.2917L17 46.1667L33.6667 62.8334L67 29.5L61.125 23.5834Z" fill="white"/>
</svg>
