<svg width="20" height="27" viewBox="0 0 20 27" fill="none" xmlns="http://www.w3.org/2000/svg">
<path d="M9.4625 15.6125C7.7625 15.9625 6.75 17.0625 6.75 18.625C6.75 20.3 8.1375 21.65 9.8625 21.65C12.425 21.65 14.5 19.575 14.5 17.0125C14.5 15.675 14.3125 14.3625 13.925 13.1125C12.9375 14.45 11.175 15.2625 9.4625 15.6125ZM11.875 0C11.875 0 12.8 3.3125 12.8 6C12.8 8.575 11.1125 10.6625 8.5375 10.6625C5.95 10.6625 4 8.575 4 6L4.0375 5.55C1.5125 8.55 0 12.4375 0 16.6625C0 22.1875 4.475 26.6625 10 26.6625C15.525 26.6625 20 22.1875 20 16.6625C20 9.925 16.7625 3.9125 11.875 0ZM10 24.1625C5.8625 24.1625 2.5 20.8 2.5 16.6625C2.5 14.75 2.875 12.8625 3.575 11.125C4.8375 12.3875 6.5875 13.1625 8.5375 13.1625C11.8625 13.1625 14.475 10.875 15.1375 7.625C16.675 10.375 17.5 13.4625 17.5 16.6625C17.5 20.8 14.1375 24.1625 10 24.1625Z" fill="currentColor"/>
</svg>
