<svg width="42" height="42" viewBox="0 0 42 42" fill="none" xmlns="http://www.w3.org/2000/svg">
<path d="M10.5834 18.9167V23.0833H31.4167V18.9167H10.5834ZM21.0001 0.166672C9.50008 0.166672 0.166748 9.50001 0.166748 21C0.166748 32.5 9.50008 41.8333 21.0001 41.8333C32.5001 41.8333 41.8334 32.5 41.8334 21C41.8334 9.50001 32.5001 0.166672 21.0001 0.166672ZM21.0001 37.6667C11.8126 37.6667 4.33342 30.1875 4.33342 21C4.33342 11.8125 11.8126 4.33334 21.0001 4.33334C30.1876 4.33334 37.6668 11.8125 37.6668 21C37.6668 30.1875 30.1876 37.6667 21.0001 37.6667Z" fill="black"/>
</svg>
